<svg width="32" height="32" viewBox="0 0 32 32" fill="none" xmlns="http://www.w3.org/2000/svg">
<g clip-path="url(#clip0_2162_2663)" filter="url(#filter0_d_2162_2663)">
<path d="M16.5 3.02297C14.8333 2.87405 11 3.38038 9 6.59707C6.5 10.6179 9 19.1065 5.5 20H16.5" stroke="black" stroke-width="1.8" stroke-linejoin="round"/>
<path d="M15.5 3.02297C17.1667 2.87405 21 3.38038 23 6.59707C25.5 10.6179 23 19.1065 26.5 20H15.5" stroke="black" stroke-width="1.8" stroke-linejoin="round"/>
<path d="M13 22C13.505 23.1773 14.6582 24 16 24C17.3418 24 18.495 23.1773 19 22H13Z" fill="black"/>
<path fill-rule="evenodd" clip-rule="evenodd" d="M17.7324 3C17.9026 2.70583 18 2.36429 18 2C18 0.89543 17.1046 0 16 0C14.8954 0 14 0.89543 14 2C14 2.36429 14.0974 2.70583 14.2676 3H17.7324Z" fill="black"/>
</g>
<defs>
<filter id="filter0_d_2162_2663" x="0" y="0" width="32" height="32" filterUnits="userSpaceOnUse" color-interpolation-filters="sRGB">
<feFlood flood-opacity="0" result="BackgroundImageFix"/>
<feColorMatrix in="SourceAlpha" type="matrix" values="0 0 0 0 0 0 0 0 0 0 0 0 0 0 0 0 0 0 127 0" result="hardAlpha"/>
<feOffset dy="4"/>
<feGaussianBlur stdDeviation="2"/>
<feComposite in2="hardAlpha" operator="out"/>
<feColorMatrix type="matrix" values="0 0 0 0 0 0 0 0 0 0 0 0 0 0 0 0 0 0 0.25 0"/>
<feBlend mode="normal" in2="BackgroundImageFix" result="effect1_dropShadow_2162_2663"/>
<feBlend mode="normal" in="SourceGraphic" in2="effect1_dropShadow_2162_2663" result="shape"/>
</filter>
<clipPath id="clip0_2162_2663">
<rect width="24" height="24" fill="white" transform="translate(4)"/>
</clipPath>
</defs>
</svg>
