<svg width="18" height="18" viewBox="0 0 18 18" fill="none" xmlns="http://www.w3.org/2000/svg">
<path d="M1 16.5858H0C0 16.851 0.105358 17.1054 0.292895 17.2929C0.480433 17.4805 0.734788 17.5858 1.00001 17.5858L1 16.5858ZM1 12.5858L0.292892 11.8787C0.105357 12.0662 0 12.3206 0 12.5858H1ZM11.8686 1.71716L11.1615 1.01005L11.1615 1.01005L11.8686 1.71716ZM14.1313 1.71716L13.4242 2.42426L13.4242 2.42426L14.1313 1.71716ZM15.8686 3.45442L16.5757 2.74731L16.5757 2.74731L15.8686 3.45442ZM15.8686 5.71716L15.1615 5.01005L15.1615 5.01005L15.8686 5.71716ZM5 16.5858L5.00001 17.5858C5.26522 17.5858 5.51957 17.4804 5.70711 17.2929L5 16.5858ZM16.5369 4.27681L17.4879 3.9678L17.4879 3.9678L16.5369 4.27681ZM16.5369 4.89477L15.5858 4.58575L15.5858 4.58575L16.5369 4.89477ZM12.691 1.04894L12.382 0.0978869L12.382 0.097887L12.691 1.04894ZM13.3091 1.04894L13.6181 0.097887L13.6181 0.0978869L13.3091 1.04894ZM9.70711 3.8787C9.31658 3.48818 8.68342 3.48818 8.29289 3.8787C7.90237 4.26923 7.90237 4.90239 8.29289 5.29292L9.70711 3.8787ZM12.2929 9.29292C12.6834 9.68344 13.3166 9.68344 13.7071 9.29292C14.0976 8.90239 14.0976 8.26923 13.7071 7.8787L12.2929 9.29292ZM2 16.5858V12.5858H0V16.5858H2ZM1.70711 13.2929L12.5757 2.42426L11.1615 1.01005L0.292892 11.8787L1.70711 13.2929ZM13.4242 2.42426L15.1615 4.16152L16.5757 2.74731L14.8385 1.01005L13.4242 2.42426ZM15.1615 5.01005L4.29289 15.8787L5.70711 17.2929L16.5757 6.42426L15.1615 5.01005ZM4.99999 15.5858L0.999994 15.5858L1.00001 17.5858L5.00001 17.5858L4.99999 15.5858ZM15.1615 4.16152C15.3712 4.37119 15.4854 4.48649 15.5611 4.57568C15.6292 4.65596 15.6058 4.64724 15.5858 4.58583L17.4879 3.9678C17.3938 3.67806 17.2342 3.45615 17.0858 3.28131C16.9449 3.11539 16.7621 2.93365 16.5757 2.74731L15.1615 4.16152ZM16.5757 6.42426C16.7621 6.23792 16.9449 6.05618 17.0858 5.89025C17.2342 5.71541 17.3938 5.49351 17.4879 5.20379L15.5858 4.58575C15.6058 4.52436 15.6292 4.51565 15.5611 4.59591C15.4854 4.68509 15.3712 4.80038 15.1615 5.01005L16.5757 6.42426ZM15.5858 4.58583L15.5858 4.58575L17.4879 5.20379C17.6184 4.8021 17.6184 4.36948 17.4879 3.9678L15.5858 4.58583ZM12.5757 2.42426C12.7854 2.2146 12.9007 2.10042 12.9899 2.02472C13.0701 1.9566 13.0614 1.98006 13 2L12.382 0.097887C12.0923 0.192017 11.8704 0.351577 11.6955 0.50001C11.5296 0.640867 11.3479 0.823696 11.1615 1.01005L12.5757 2.42426ZM14.8385 1.01005C14.6522 0.823753 14.4704 0.640915 14.3046 0.500081C14.1298 0.351649 13.9079 0.192038 13.6181 0.097887L13.0001 2C12.9386 1.98004 12.9299 1.95653 13.0101 2.02465C13.0993 2.10037 13.2145 2.21455 13.4242 2.42426L14.8385 1.01005ZM13 2H13.0001L13.6181 0.0978869C13.2164 -0.032629 12.7837 -0.032629 12.382 0.0978869L13 2ZM8.29289 5.29292L12.2929 9.29292L13.7071 7.8787L9.70711 3.8787L8.29289 5.29292Z" fill="black"/>
</svg>
